<svg xmlns="http://www.w3.org/2000/svg" width="908.408" height="133.952" viewBox="0 0 908.408 133.952">
  <path id="Path_36" data-name="Path 36" d="M102.3-128.8c-3.128,0-4.416,1.288-4.416,4.416v73.416l-70.1-74.152c-4.416-4.416-6.624-5.888-8.832-5.888-2.76,0-4.048,2.208-4.048,6.624V-4.416C14.9-1.288,16.192,0,19.32,0H36.064c3.128,0,4.6-1.288,4.6-4.416V-77.832l70.1,74.152c4.416,4.416,6.44,5.888,8.648,5.888,2.944,0,4.232-2.208,4.232-6.624V-124.384c0-3.128-1.472-4.416-4.6-4.416ZM271.4-19.5c0-3.128-1.472-4.416-4.6-4.416H216.568c-1.656,0-2.392-.736-2.392-2.392v-24.1c0-2.024.736-2.392,2.392-2.392H260.36c3.128,0,4.6-1.288,4.6-4.416v-14.9c0-3.128-1.472-4.6-4.6-4.6H216.568c-1.656,0-2.392-.736-2.392-2.392v-23.368c0-1.656.736-2.392,2.392-2.392h50.048c3.128,0,4.6-1.288,4.6-4.416v-15.088c0-3.128-1.472-4.416-4.6-4.416H192.832c-3.128,0-4.416,1.288-4.416,4.416V-4.416C188.416-1.288,189.7,0,192.832,0H266.8c3.128,0,4.6-1.288,4.6-4.416Zm63.3-109.3c-3.128,0-4.416,1.288-4.416,4.416V-4.416C330.28-1.288,331.568,0,334.7,0h43.24c34.776,0,52.072-12.88,52.072-38.64,0-14.168-8.28-24.472-21.528-27.968,11.04-4.6,17.48-13.616,17.48-27.048,0-24.472-17.48-35.144-48.576-35.144Zm21.344,25.392c0-2.024.736-2.392,2.392-2.392h17.3c16.192,0,23.736,4.232,23.736,14.536,0,10.12-6.992,14.9-22.448,14.9H358.432c-1.656,0-2.392-.736-2.392-2.392ZM403.328-38.64c0,11.04-7.544,15.64-25.392,15.64h-19.5c-1.656,0-2.392-.736-2.392-2.392V-50.968c0-2.024.368-2.576,2.392-2.576h20.24C395.048-53.544,403.328-49.128,403.328-38.64ZM539.856,2.208c33.3,0,56.856-19.688,56.856-57.408v-69.184c0-3.128-1.472-4.416-4.6-4.416H575.368c-3.128,0-4.416,1.288-4.416,4.416v67.9c0,22.08-10.856,34.776-30.176,34.776-19.688,0-29.992-12.7-29.992-34.96v-67.712c0-3.128-1.472-4.416-4.6-4.416H489.44c-3.128,0-4.416,1.288-4.416,4.416v69.552C485.024-16.56,507.1,2.208,539.856,2.208ZM688.712-23.92c-1.656,0-2.392-.736-2.392-2.392v-98.072c0-3.128-1.472-4.416-4.6-4.416H664.976c-3.128,0-4.416,1.288-4.416,4.416V-4.416c0,3.128,1.288,4.416,4.416,4.416h74.336c3.128,0,4.416-1.288,4.416-4.416V-19.5c0-3.128-1.288-4.416-4.416-4.416ZM819.72-5.7l36.8-78.384L893.688-5.7c2.208,4.6,3.864,5.7,8.1,5.7h17.48c2.76,0,4.048-.92,4.048-2.576a12.434,12.434,0,0,0-.92-3.128L864.8-122.544c-3.68-7.36-4.968-9.2-7.728-9.2s-4.416,1.84-7.912,9.2L791.936-5.7a12.433,12.433,0,0,0-.92,3.128C791.016-.92,792.3,0,795.064,0H811.44C815.856,0,817.512-1.1,819.72-5.7Z" transform="translate(-14.904 131.744)" fill="#fefefe"/>
</svg>
